STARTFONT 2.1
COMMENT +
COMMENT  Copyright 1988 Bitstream, Inc., Cambridge, Massachusetts, USA
COMMENT  Copyright 1996 BIZNET Poland, Inc.
COMMENT
COMMENT  Permission to use, copy, modify, and distribute this software and
COMMENT  its documentation for any purpose and without fee is hereby
COMMENT  granted, provided that the above copyright notice appear in all
COMMENT  copies and that both that copyright notice and this permission
COMMENT  notice appear in supporting documentation, and that the name of
COMMENT  Bitstream not be used in advertising or publicity pertaining to
COMMENT  distribution of the software without specific, written prior
COMMENT  permission.  Bitstream makes no representations about the
COMMENT  suitability of this software for any purpose.  It is provided "as
COMMENT  is" without express or implied warranty.
COMMENT
COMMENT  BITSTREAM DISCLAIMS ALL WARRANTIES WITH REGARD TO THIS SOFTWARE,
COMMENT  INCLUDING ALL IMPLIED WARRANTIES OF MERCHANTABILITY AND FITNESS, IN
COMMENT  NO EVENT SHALL BITSTREAM BE LIABLE FOR ANY SPECIAL, INDIRECT OR
COMMENT  CONSEQUENTIAL DAMAGES OR ANY DAMAGES WHATSOEVER RESULTING FROM LOSS
COMMENT  OF USE, DATA OR PROFITS, WHETHER IN AN ACTION OF CONTRACT,
COMMENT  NEGLIGENCE OR OTHER TORTIOUS ACTION, ARISING OUT OF OR IN
COMMENT  CONNECTION WITH THE USE OR PERFORMANCE OF THIS SOFTWARE.
COMMENT -
FONT -BIZNET-Chartis-Medium-R-Normal--10-100-75-75-P-56-ISO8859-2
SIZE 10 75 75
FONTBOUNDINGBOX 10 10 -1 -2
STARTPROPERTIES 23
FOUNDRY "BIZNET"
FAMILY_NAME "BIZNET Chartis"
WEIGHT_NAME "Medium"
SLANT "R"
SETWIDTH_NAME "Normal"
ADD_STYLE_NAME ""
PIXEL_SIZE 10
POINT_SIZE 100
RESOLUTION_X 75
RESOLUTION_Y 75
SPACING "P"
AVERAGE_WIDTH 56
CHARSET_REGISTRY "ISO8859"
CHARSET_ENCODING "2"
CAP_HEIGHT 7
X_HEIGHT 5
FONT_ASCENT 10
FONT_DESCENT 2
FACE_NAME "BIZNET Chartis"
DEFAULT_CHAR 1
CHARSET_COLLECTIONS "ASCII ISO8859-2"

STARTCHAR space
ENCODING 32
SWIDTH 288 0
DWIDTH 3 0
BBX 1 1 0 0
BITMAP
00
ENDCHAR
STARTCHAR exclam
ENCODING 33
SWIDTH 384 0
DWIDTH 4 0
BBX 1 7 2 0
BITMAP
80
80
80
80
80
00
80
ENDCHAR
STARTCHAR quotedbl
ENCODING 34
SWIDTH 288 0
DWIDTH 3 0
BBX 3 3 0 5
BITMAP
A0
A0
A0
ENDCHAR
STARTCHAR numbersign
ENCODING 35
SWIDTH 768 0
DWIDTH 8 0
BBX 7 7 0 0
BITMAP
14
14
7E
28
FE
50
50
ENDCHAR
STARTCHAR dollar
ENCODING 36
SWIDTH 576 0
DWIDTH 6 0
BBX 5 9 1 -1
BITMAP
20
78
A8
A0
70
28
A8
F0
20
ENDCHAR
STARTCHAR percent
ENCODING 37
SWIDTH 864 0
DWIDTH 9 0
BBX 8 8 1 0
BITMAP
42
A4
A8
AA
55
15
25
42
ENDCHAR
STARTCHAR ampersand
ENCODING 38
SWIDTH 672 0
DWIDTH 7 0
BBX 6 7 1 0
BITMAP
60
90
70
6C
98
98
6C
ENDCHAR
STARTCHAR quoteright
ENCODING 39
SWIDTH 192 0
DWIDTH 2 0
BBX 1 3 1 5
BITMAP
80
80
80
ENDCHAR
STARTCHAR parenleft
ENCODING 40
SWIDTH 384 0
DWIDTH 4 0
BBX 3 9 1 -1
BITMAP
20
40
80
80
80
80
80
40
20
ENDCHAR
STARTCHAR parenright
ENCODING 41
SWIDTH 384 0
DWIDTH 4 0
BBX 3 9 0 -1
BITMAP
80
40
20
20
20
20
20
40
80
ENDCHAR
STARTCHAR asterisk
ENCODING 42
SWIDTH 480 0
DWIDTH 5 0
BBX 5 4 0 4
BITMAP
20
F8
20
50
ENDCHAR
STARTCHAR plus
ENCODING 43
SWIDTH 864 0
DWIDTH 9 0
BBX 7 7 1 0
BITMAP
10
10
10
FE
10
10
10
ENDCHAR
STARTCHAR comma
ENCODING 44
SWIDTH 288 0
DWIDTH 3 0
BBX 1 2 1 -1
BITMAP
80
80
ENDCHAR
STARTCHAR minus
ENCODING 45
SWIDTH 288 0
DWIDTH 3 0
BBX 2 1 1 2
BITMAP
C0
ENDCHAR
STARTCHAR period
ENCODING 46
SWIDTH 288 0
DWIDTH 3 0
BBX 1 1 1 0
BITMAP
80
ENDCHAR
STARTCHAR slash
ENCODING 47
SWIDTH 480 0
DWIDTH 5 0
BBX 5 8 0 -1
BITMAP
08
10
10
20
20
40
40
80
ENDCHAR
STARTCHAR zero
ENCODING 48
SWIDTH 576 0
DWIDTH 6 0
BBX 5 7 1 0
BITMAP
70
50
88
88
88
50
20
ENDCHAR
STARTCHAR one
ENCODING 49
SWIDTH 576 0
DWIDTH 6 0
BBX 3 7 1 0
BITMAP
40
C0
40
40
40
40
E0
ENDCHAR
STARTCHAR two
ENCODING 50
SWIDTH 576 0
DWIDTH 6 0
BBX 5 7 1 0
BITMAP
70
88
08
10
20
48
F8
ENDCHAR
STARTCHAR three
ENCODING 51
SWIDTH 576 0
DWIDTH 6 0
BBX 5 7 1 0
BITMAP
70
88
10
30
08
88
70
ENDCHAR
STARTCHAR four
ENCODING 52
SWIDTH 576 0
DWIDTH 6 0
BBX 6 7 0 0
BITMAP
08
18
28
48
FC
08
08
ENDCHAR
STARTCHAR five
ENCODING 53
SWIDTH 576 0
DWIDTH 6 0
BBX 6 7 0 0
BITMAP
7C
40
78
04
04
C8
70
ENDCHAR
STARTCHAR six
ENCODING 54
SWIDTH 576 0
DWIDTH 6 0
BBX 5 7 1 0
BITMAP
10
60
80
F0
88
88
70
ENDCHAR
STARTCHAR seven
ENCODING 55
SWIDTH 576 0
DWIDTH 6 0
BBX 5 7 1 0
BITMAP
F8
88
10
20
20
40
40
ENDCHAR
STARTCHAR eight
ENCODING 56
SWIDTH 576 0
DWIDTH 6 0
BBX 5 7 1 0
BITMAP
30
48
C8
70
88
88
70
ENDCHAR
STARTCHAR nine
ENCODING 57
SWIDTH 576 0
DWIDTH 6 0
BBX 5 7 1 0
BITMAP
70
88
88
88
78
10
60
ENDCHAR
STARTCHAR colon
ENCODING 58
SWIDTH 288 0
DWIDTH 3 0
BBX 1 5 1 0
BITMAP
80
00
00
00
80
ENDCHAR
STARTCHAR semicolon
ENCODING 59
SWIDTH 288 0
DWIDTH 3 0
BBX 1 6 1 -1
BITMAP
80
00
00
00
80
80
ENDCHAR
STARTCHAR less
ENCODING 60
SWIDTH 864 0
DWIDTH 9 0
BBX 6 5 1 1
BITMAP
0C
70
80
70
0C
ENDCHAR
STARTCHAR equal
ENCODING 61
SWIDTH 864 0
DWIDTH 9 0
BBX 6 3 2 2
BITMAP
FC
00
FC
ENDCHAR
STARTCHAR greater
ENCODING 62
SWIDTH 864 0
DWIDTH 9 0
BBX 6 5 2 1
BITMAP
C0
38
04
38
C0
ENDCHAR
STARTCHAR question
ENCODING 63
SWIDTH 480 0
DWIDTH 5 0
BBX 4 7 0 0
BITMAP
60
90
10
20
40
00
40
ENDCHAR
STARTCHAR at
ENCODING 64
SWIDTH 960 0
DWIDTH 10 0
BBX 9 9 1 -1
BITMAP
1E00
6100
4E80
9480
A480
A500
9E00
4300
3C00
ENDCHAR
STARTCHAR A
ENCODING 65
SWIDTH 672 0
DWIDTH 7 0
BBX 7 7 0 0
BITMAP
10
38
28
48
7C
44
C6
ENDCHAR
STARTCHAR B
ENCODING 66
SWIDTH 576 0
DWIDTH 6 0
BBX 5 7 1 0
BITMAP
F0
48
50
70
48
48
F0
ENDCHAR
STARTCHAR C
ENCODING 67
SWIDTH 672 0
DWIDTH 7 0
BBX 6 7 1 0
BITMAP
38
44
80
80
80
44
3C
ENDCHAR
STARTCHAR D
ENCODING 68
SWIDTH 672 0
DWIDTH 7 0
BBX 6 7 1 0
BITMAP
F0
48
44
44
44
48
F0
ENDCHAR
STARTCHAR E
ENCODING 69
SWIDTH 576 0
DWIDTH 6 0
BBX 5 7 1 0
BITMAP
F8
40
48
78
48
40
F8
ENDCHAR
STARTCHAR F
ENCODING 70
SWIDTH 576 0
DWIDTH 6 0
BBX 5 7 1 0
BITMAP
F8
48
50
70
50
40
C0
ENDCHAR
STARTCHAR G
ENCODING 71
SWIDTH 672 0
DWIDTH 7 0
BBX 6 7 1 0
BITMAP
38
48
80
9C
88
48
38
ENDCHAR
STARTCHAR H
ENCODING 72
SWIDTH 768 0
DWIDTH 8 0
BBX 7 7 1 0
BITMAP
EE
44
44
7C
44
44
EE
ENDCHAR
STARTCHAR I
ENCODING 73
SWIDTH 384 0
DWIDTH 4 0
BBX 3 7 1 0
BITMAP
E0
40
40
40
40
40
E0
ENDCHAR
STARTCHAR J
ENCODING 74
SWIDTH 480 0
DWIDTH 5 0
BBX 5 7 0 0
BITMAP
38
10
10
10
10
90
E0
ENDCHAR
STARTCHAR K
ENCODING 75
SWIDTH 672 0
DWIDTH 7 0
BBX 6 7 1 0
BITMAP
EC
48
50
70
50
48
E4
ENDCHAR
STARTCHAR L
ENCODING 76
SWIDTH 480 0
DWIDTH 5 0
BBX 4 7 1 0
BITMAP
E0
40
40
40
40
50
F0
ENDCHAR
STARTCHAR M
ENCODING 77
SWIDTH 864 0
DWIDTH 9 0
BBX 8 7 1 0
BITMAP
E3
66
66
5A
5A
5A
F7
ENDCHAR
STARTCHAR N
ENCODING 78
SWIDTH 672 0
DWIDTH 7 0
BBX 6 7 1 0
BITMAP
CC
68
68
58
58
58
C8
ENDCHAR
STARTCHAR O
ENCODING 79
SWIDTH 768 0
DWIDTH 8 0
BBX 7 7 1 0
BITMAP
38
44
82
82
82
44
38
ENDCHAR
STARTCHAR P
ENCODING 80
SWIDTH 576 0
DWIDTH 6 0
BBX 5 7 1 0
BITMAP
F0
48
48
48
70
40
E0
ENDCHAR
STARTCHAR Q
ENCODING 81
SWIDTH 768 0
DWIDTH 8 0
BBX 7 8 1 -1
BITMAP
38
44
82
82
82
44
38
1E
ENDCHAR
STARTCHAR R
ENCODING 82
SWIDTH 672 0
DWIDTH 7 0
BBX 6 7 1 0
BITMAP
F0
48
48
70
48
48
E4
ENDCHAR
STARTCHAR S
ENCODING 83
SWIDTH 576 0
DWIDTH 6 0
BBX 5 7 1 0
BITMAP
78
88
80
70
08
88
F0
ENDCHAR
STARTCHAR T
ENCODING 84
SWIDTH 576 0
DWIDTH 6 0
BBX 5 7 1 0
BITMAP
F8
A8
20
20
20
20
70
ENDCHAR
STARTCHAR U
ENCODING 85
SWIDTH 768 0
DWIDTH 8 0
BBX 7 7 1 0
BITMAP
EE
44
44
44
44
4C
30
ENDCHAR
STARTCHAR V
ENCODING 86
SWIDTH 672 0
DWIDTH 7 0
BBX 7 7 0 0
BITMAP
C6
44
44
24
28
38
10
ENDCHAR
STARTCHAR W
ENCODING 87
SWIDTH 960 0
DWIDTH 10 0
BBX 10 7 0 0
BITMAP
C4C0
4C40
4C80
5280
5280
3380
2100
ENDCHAR
STARTCHAR X
ENCODING 88
SWIDTH 576 0
DWIDTH 6 0
BBX 6 7 0 0
BITMAP
EC
48
30
30
30
48
CC
ENDCHAR
STARTCHAR Y
ENCODING 89
SWIDTH 672 0
DWIDTH 7 0
BBX 7 7 0 0
BITMAP
E6
44
28
10
10
10
38
ENDCHAR
STARTCHAR Z
ENCODING 90
SWIDTH 576 0
DWIDTH 6 0
BBX 5 7 0 0
BITMAP
F8
90
10
20
40
88
F8
ENDCHAR
STARTCHAR bracketleft
ENCODING 91
SWIDTH 384 0
DWIDTH 4 0
BBX 2 8 2 -1
BITMAP
C0
80
80
80
80
80
80
C0
ENDCHAR
STARTCHAR backslash
ENCODING 92
SWIDTH 480 0
DWIDTH 5 0
BBX 5 8 0 -1
BITMAP
80
40
40
20
20
10
10
08
ENDCHAR
STARTCHAR bracketright
ENCODING 93
SWIDTH 384 0
DWIDTH 4 0
BBX 2 8 0 -1
BITMAP
C0
40
40
40
40
40
40
C0
ENDCHAR
STARTCHAR asciicircum
ENCODING 94
SWIDTH 960 0
DWIDTH 10 0
BBX 6 3 2 5
BITMAP
30
48
84
ENDCHAR
STARTCHAR underscore
ENCODING 95
SWIDTH 480 0
DWIDTH 5 0
BBX 5 1 0 -2
BITMAP
F8
ENDCHAR
STARTCHAR quoteleft
ENCODING 96
SWIDTH 192 0
DWIDTH 2 0
BBX 1 3 1 5
BITMAP
80
80
80
ENDCHAR
STARTCHAR a
ENCODING 97
SWIDTH 480 0
DWIDTH 5 0
BBX 4 5 1 0
BITMAP
60
30
D0
90
70
ENDCHAR
STARTCHAR b
ENCODING 98
SWIDTH 576 0
DWIDTH 6 0
BBX 5 8 1 0
BITMAP
80
80
80
F0
88
88
98
E0
ENDCHAR
STARTCHAR c
ENCODING 99
SWIDTH 480 0
DWIDTH 5 0
BBX 4 5 1 0
BITMAP
60
90
80
80
70
ENDCHAR
STARTCHAR d
ENCODING 100
SWIDTH 672 0
DWIDTH 7 0
BBX 5 8 1 0
BITMAP
18
08
08
38
48
88
C8
78
ENDCHAR
STARTCHAR e
ENCODING 101
SWIDTH 480 0
DWIDTH 5 0
BBX 4 5 1 0
BITMAP
60
90
F0
80
70
ENDCHAR
STARTCHAR f
ENCODING 102
SWIDTH 288 0
DWIDTH 3 0
BBX 3 8 1 0
BITMAP
60
A0
80
C0
80
80
80
C0
ENDCHAR
STARTCHAR g
ENCODING 103
SWIDTH 480 0
DWIDTH 5 0
BBX 4 7 1 -2
BITMAP
50
A0
40
40
60
B0
40
ENDCHAR
STARTCHAR h
ENCODING 104
SWIDTH 672 0
DWIDTH 7 0
BBX 5 8 1 0
BITMAP
80
80
80
F0
88
88
88
D8
ENDCHAR
STARTCHAR i
ENCODING 105
SWIDTH 288 0
DWIDTH 3 0
BBX 1 8 1 0
BITMAP
80
80
00
80
80
80
80
80
ENDCHAR
STARTCHAR j
ENCODING 106
SWIDTH 288 0
DWIDTH 3 0
BBX 3 10 -1 -2
BITMAP
20
20
00
20
20
20
20
20
20
C0
ENDCHAR
STARTCHAR k
ENCODING 107
SWIDTH 480 0
DWIDTH 5 0
BBX 4 8 1 0
BITMAP
80
80
80
90
A0
E0
90
D0
ENDCHAR
STARTCHAR l
ENCODING 108
SWIDTH 288 0
DWIDTH 3 0
BBX 1 8 1 0
BITMAP
80
80
80
80
80
80
80
80
ENDCHAR
STARTCHAR m
ENCODING 109
SWIDTH 864 0
DWIDTH 9 0
BBX 7 5 1 0
BITMAP
FE
92
92
92
DA
ENDCHAR
STARTCHAR n
ENCODING 110
SWIDTH 576 0
DWIDTH 6 0
BBX 5 5 1 0
BITMAP
F8
88
88
88
D8
ENDCHAR
STARTCHAR o
ENCODING 111
SWIDTH 576 0
DWIDTH 6 0
BBX 5 5 1 0
BITMAP
70
88
88
88
70
ENDCHAR
STARTCHAR p
ENCODING 112
SWIDTH 576 0
DWIDTH 6 0
BBX 5 7 1 -2
BITMAP
F0
88
88
98
E0
80
C0
ENDCHAR
STARTCHAR q
ENCODING 113
SWIDTH 576 0
DWIDTH 6 0
BBX 5 7 1 -2
BITMAP
38
C8
88
88
78
08
18
ENDCHAR
STARTCHAR r
ENCODING 114
SWIDTH 384 0
DWIDTH 4 0
BBX 3 5 1 0
BITMAP
E0
80
80
80
C0
ENDCHAR
STARTCHAR s
ENCODING 115
SWIDTH 384 0
DWIDTH 4 0
BBX 3 5 1 0
BITMAP
60
A0
40
A0
C0
ENDCHAR
STARTCHAR t
ENCODING 116
SWIDTH 288 0
DWIDTH 3 0
BBX 2 6 1 0
BITMAP
80
C0
80
80
80
C0
ENDCHAR
STARTCHAR u
ENCODING 117
SWIDTH 672 0
DWIDTH 7 0
BBX 5 5 1 0
BITMAP
98
88
88
88
78
ENDCHAR
STARTCHAR v
ENCODING 118
SWIDTH 480 0
DWIDTH 5 0
BBX 5 5 0 0
BITMAP
D8
48
50
70
20
ENDCHAR
STARTCHAR w
ENCODING 119
SWIDTH 768 0
DWIDTH 8 0
BBX 8 5 0 0
BITMAP
CB
49
5A
76
24
ENDCHAR
STARTCHAR x
ENCODING 120
SWIDTH 480 0
DWIDTH 5 0
BBX 5 5 0 0
BITMAP
D8
50
20
50
D8
ENDCHAR
STARTCHAR y
ENCODING 121
SWIDTH 480 0
DWIDTH 5 0
BBX 5 7 0 -2
BITMAP
D8
50
50
30
20
20
C0
ENDCHAR
STARTCHAR z
ENCODING 122
SWIDTH 480 0
DWIDTH 5 0
BBX 4 5 1 0
BITMAP
F0
A0
40
90
F0
ENDCHAR
STARTCHAR braceleft
ENCODING 123
SWIDTH 480 0
DWIDTH 5 0
BBX 4 8 0 -1
BITMAP
10
20
20
C0
20
20
20
10
ENDCHAR
STARTCHAR bar
ENCODING 124
SWIDTH 480 0
DWIDTH 5 0
BBX 1 10 2 -2
BITMAP
80
80
80
80
80
80
80
80
80
80
ENDCHAR
STARTCHAR braceright
ENCODING 125
SWIDTH 480 0
DWIDTH 5 0
BBX 4 8 0 -1
BITMAP
80
40
40
30
40
40
40
80
ENDCHAR
STARTCHAR asciitilde
ENCODING 126
SWIDTH 960 0
DWIDTH 10 0
BBX 6 2 2 5
BITMAP
64
98
ENDCHAR
STARTCHAR Aogonek
ENCODING 161
SWIDTH 672 0
DWIDTH 7 0
BBX 7 9 0 -2
BITMAP
10
38
28
48
7C
44
C6
04
06
ENDCHAR
STARTCHAR breve
ENCODING 162
SWIDTH 480 0
DWIDTH 5 0
BBX 3 1 1 6
BITMAP
E0
ENDCHAR
STARTCHAR Lslash
ENCODING 163
SWIDTH 480 0
DWIDTH 5 0
BBX 4 7 1 0
BITMAP
E0
40
60
40
C0
50
F0
ENDCHAR
STARTCHAR currency
ENCODING 164
SWIDTH 576 0
DWIDTH 6 0
BBX 6 6 0 1
BITMAP
84
78
48
48
78
84
ENDCHAR
STARTCHAR Lcaron
ENCODING 165
SWIDTH 480 0
DWIDTH 5 0
BBX 4 7 1 0
BITMAP
F0
50
50
40
40
50
F0
ENDCHAR
STARTCHAR Sacute
ENCODING 166
SWIDTH 576 0
DWIDTH 6 0
BBX 5 10 1 0
BITMAP
08
10
00
78
88
80
70
08
88
F0
ENDCHAR
STARTCHAR section
ENCODING 167
SWIDTH 480 0
DWIDTH 5 0
BBX 4 9 1 -1
BITMAP
60
90
40
60
90
60
30
90
60
ENDCHAR
STARTCHAR dieresis
ENCODING 168
SWIDTH 480 0
DWIDTH 5 0
BBX 3 1 1 6
BITMAP
A0
ENDCHAR
STARTCHAR Scaron
ENCODING 169
SWIDTH 576 0
DWIDTH 6 0
BBX 5 10 0 0
BITMAP
50
20
00
30
48
40
30
08
88
70
ENDCHAR
STARTCHAR Scedilla
ENCODING 170
SWIDTH 576 0
DWIDTH 6 0
BBX 5 9 1 -2
BITMAP
78
88
80
70
08
88
F0
20
40
ENDCHAR
STARTCHAR Tcaron
ENCODING 171
SWIDTH 576 0
DWIDTH 6 0
BBX 5 10 1 0
BITMAP
50
20
00
F8
A8
20
20
20
20
70
ENDCHAR
STARTCHAR Zacute
ENCODING 172
SWIDTH 576 0
DWIDTH 6 0
BBX 5 10 0 0
BITMAP
10
20
00
F8
90
10
20
40
88
F8
ENDCHAR
STARTCHAR hyphen
ENCODING 173
SWIDTH 288 0
DWIDTH 3 0
BBX 2 1 1 2
BITMAP
C0
ENDCHAR
STARTCHAR Zcaron
ENCODING 174
SWIDTH 576 0
DWIDTH 6 0
BBX 6 10 0 0
BITMAP
28
10
00
FC
88
18
10
20
44
7C
ENDCHAR
STARTCHAR Zdotaccent
ENCODING 175
SWIDTH 576 0
DWIDTH 6 0
BBX 5 9 0 0
BITMAP
20
00
F8
90
10
20
40
88
F8
ENDCHAR
STARTCHAR degree
ENCODING 176
SWIDTH 288 0
DWIDTH 3 0
BBX 3 3 0 4
BITMAP
40
A0
40
ENDCHAR
STARTCHAR aogonek
ENCODING 177
SWIDTH 480 0
DWIDTH 5 0
BBX 4 7 1 -2
BITMAP
60
30
D0
90
70
20
30
ENDCHAR
STARTCHAR ogonek
ENCODING 178
SWIDTH 480 0
DWIDTH 5 0
BBX 1 2 2 -2
BITMAP
80
80
ENDCHAR
STARTCHAR lslash
ENCODING 179
SWIDTH 288 0
DWIDTH 3 0
BBX 3 8 0 0
BITMAP
40
40
60
40
C0
40
40
40
ENDCHAR
STARTCHAR acute
ENCODING 180
SWIDTH 480 0
DWIDTH 5 0
BBX 2 2 2 6
BITMAP
40
80
ENDCHAR
STARTCHAR lcaron
ENCODING 181
SWIDTH 192 0
DWIDTH 2 0
BBX 2 8 1 0
BITMAP
C0
C0
C0
80
80
80
80
80
ENDCHAR
STARTCHAR sacute
ENCODING 182
SWIDTH 384 0
DWIDTH 4 0
BBX 3 8 1 0
BITMAP
20
40
00
60
A0
40
A0
C0
ENDCHAR
STARTCHAR caron
ENCODING 183
SWIDTH 480 0
DWIDTH 5 0
BBX 3 2 1 6
BITMAP
A0
40
ENDCHAR
STARTCHAR cedilla
ENCODING 184
SWIDTH 576 0
DWIDTH 6 0
BBX 2 2 2 -2
BITMAP
40
80
ENDCHAR
STARTCHAR scaron
ENCODING 185
SWIDTH 384 0
DWIDTH 4 0
BBX 4 8 0 0
BITMAP
50
20
00
60
80
60
10
60
ENDCHAR
STARTCHAR scedilla
ENCODING 186
SWIDTH 384 0
DWIDTH 4 0
BBX 3 7 1 -2
BITMAP
60
A0
40
A0
C0
40
80
ENDCHAR
STARTCHAR tcaron
ENCODING 187
SWIDTH 384 0
DWIDTH 4 0
BBX 3 7 1 0
BITMAP
20
A0
E0
80
80
80
C0
ENDCHAR
STARTCHAR zacute
ENCODING 188
SWIDTH 480 0
DWIDTH 5 0
BBX 4 8 1 0
BITMAP
10
20
00
F0
A0
40
90
F0
ENDCHAR
STARTCHAR hungarumlaut
ENCODING 189
SWIDTH 576 0
DWIDTH 6 0
BBX 4 2 1 6
BITMAP
50
A0
ENDCHAR
STARTCHAR zcaron
ENCODING 190
SWIDTH 480 0
DWIDTH 5 0
BBX 5 8 0 0
BITMAP
50
20
00
F8
10
20
48
F0
ENDCHAR
STARTCHAR zdotaccent
ENCODING 191
SWIDTH 480 0
DWIDTH 5 0
BBX 4 7 1 0
BITMAP
20
00
F0
A0
40
90
F0
ENDCHAR
STARTCHAR Racute
ENCODING 192
SWIDTH 672 0
DWIDTH 7 0
BBX 6 10 1 0
BITMAP
10
20
00
F0
48
48
70
48
48
E4
ENDCHAR
STARTCHAR Aacute
ENCODING 193
SWIDTH 672 0
DWIDTH 7 0
BBX 7 10 0 0
BITMAP
08
10
00
10
38
28
48
7C
44
C6
ENDCHAR
STARTCHAR Acircumflex
ENCODING 194
SWIDTH 672 0
DWIDTH 7 0
BBX 7 10 0 0
BITMAP
10
28
00
10
38
28
48
7C
44
C6
ENDCHAR
STARTCHAR Abreve
ENCODING 195
SWIDTH 672 0
DWIDTH 7 0
BBX 7 10 0 0
BITMAP
38
00
00
10
38
28
48
7C
44
C6
ENDCHAR
STARTCHAR Adieresis
ENCODING 196
SWIDTH 672 0
DWIDTH 7 0
BBX 7 9 0 0
BITMAP
28
00
10
30
28
28
7C
44
EE
ENDCHAR
STARTCHAR Lacute
ENCODING 197
SWIDTH 480 0
DWIDTH 5 0
BBX 4 10 1 0
BITMAP
20
40
00
E0
40
40
40
40
50
F0
ENDCHAR
STARTCHAR Cacute
ENCODING 198
SWIDTH 672 0
DWIDTH 7 0
BBX 6 10 1 0
BITMAP
08
10
00
38
44
80
80
80
44
3C
ENDCHAR
STARTCHAR Ccedilla
ENCODING 199
SWIDTH 672 0
DWIDTH 7 0
BBX 6 9 1 -2
BITMAP
38
44
80
80
80
44
3C
08
10
ENDCHAR
STARTCHAR Ccaron
ENCODING 200
SWIDTH 672 0
DWIDTH 7 0
BBX 6 10 1 0
BITMAP
28
10
00
38
44
80
80
80
44
3C
ENDCHAR
STARTCHAR Eacute
ENCODING 201
SWIDTH 576 0
DWIDTH 6 0
BBX 5 10 1 0
BITMAP
10
20
00
F8
40
48
78
48
40
F8
ENDCHAR
STARTCHAR Eogonek
ENCODING 202
SWIDTH 576 0
DWIDTH 6 0
BBX 5 9 1 -2
BITMAP
F8
40
48
78
48
40
F8
10
18
ENDCHAR
STARTCHAR Edieresis
ENCODING 203
SWIDTH 576 0
DWIDTH 6 0
BBX 6 9 0 0
BITMAP
30
00
FC
44
48
78
48
44
FC
ENDCHAR
STARTCHAR Ecaron
ENCODING 204
SWIDTH 576 0
DWIDTH 6 0
BBX 5 10 1 0
BITMAP
50
20
00
F8
40
48
78
48
40
F8
ENDCHAR
STARTCHAR Iacute
ENCODING 205
SWIDTH 384 0
DWIDTH 4 0
BBX 3 10 1 0
BITMAP
40
80
00
E0
40
40
40
40
40
E0
ENDCHAR
STARTCHAR Icircumflex
ENCODING 206
SWIDTH 384 0
DWIDTH 4 0
BBX 4 10 0 0
BITMAP
40
A0
00
70
20
20
20
20
20
70
ENDCHAR
STARTCHAR Dcaron
ENCODING 207
SWIDTH 672 0
DWIDTH 7 0
BBX 6 10 1 0
BITMAP
50
20
00
F0
48
44
44
44
48
F0
ENDCHAR
STARTCHAR Eth
ENCODING 208
SWIDTH 672 0
DWIDTH 7 0
BBX 7 7 0 0
BITMAP
78
24
22
F2
22
24
78
ENDCHAR
STARTCHAR Nacute
ENCODING 209
SWIDTH 672 0
DWIDTH 7 0
BBX 6 10 1 0
BITMAP
08
10
00
CC
68
68
58
58
58
C8
ENDCHAR
STARTCHAR Ncaron
ENCODING 210
SWIDTH 672 0
DWIDTH 7 0
BBX 6 10 1 0
BITMAP
28
10
00
CC
68
68
58
58
58
C8
ENDCHAR
STARTCHAR Oacute
ENCODING 211
SWIDTH 768 0
DWIDTH 8 0
BBX 7 10 1 0
BITMAP
08
10
00
38
44
82
82
82
44
38
ENDCHAR
STARTCHAR Ocircumflex
ENCODING 212
SWIDTH 768 0
DWIDTH 8 0
BBX 7 10 1 0
BITMAP
10
28
00
38
44
82
82
82
44
38
ENDCHAR
STARTCHAR Ohungarumlaut
ENCODING 213
SWIDTH 768 0
DWIDTH 8 0
BBX 7 10 1 0
BITMAP
14
28
00
38
44
82
82
82
44
38
ENDCHAR
STARTCHAR Odieresis
ENCODING 214
SWIDTH 768 0
DWIDTH 8 0
BBX 7 9 0 0
BITMAP
28
00
3C
44
82
82
82
44
3C
ENDCHAR
STARTCHAR multiply
ENCODING 215
SWIDTH 864 0
DWIDTH 9 0
BBX 6 5 2 1
BITMAP
84
48
30
48
84
ENDCHAR
STARTCHAR Rcaron
ENCODING 216
SWIDTH 672 0
DWIDTH 7 0
BBX 6 10 1 0
BITMAP
50
20
00
F0
48
48
70
48
48
E4
ENDCHAR
STARTCHAR Uring
ENCODING 217
SWIDTH 768 0
DWIDTH 8 0
BBX 7 10 1 0
BITMAP
10
28
10
EE
44
44
44
44
4C
30
ENDCHAR
STARTCHAR Uacute
ENCODING 218
SWIDTH 768 0
DWIDTH 8 0
BBX 7 10 1 0
BITMAP
08
10
00
EE
44
44
44
44
4C
30
ENDCHAR
STARTCHAR Uhungarumlaut
ENCODING 219
SWIDTH 768 0
DWIDTH 8 0
BBX 7 10 1 0
BITMAP
14
28
00
EE
44
44
44
44
4C
30
ENDCHAR
STARTCHAR Udieresis
ENCODING 220
SWIDTH 672 0
DWIDTH 7 0
BBX 7 9 0 0
BITMAP
28
00
E6
44
44
44
44
44
38
ENDCHAR
STARTCHAR Yacute
ENCODING 221
SWIDTH 672 0
DWIDTH 7 0
BBX 7 10 0 0
BITMAP
10
20
00
E6
44
28
10
10
10
38
ENDCHAR
STARTCHAR Tcedilla
ENCODING 222
SWIDTH 576 0
DWIDTH 6 0
BBX 5 9 1 -2
BITMAP
F8
A8
20
20
20
20
70
20
40
ENDCHAR
STARTCHAR germandbls
ENCODING 223
SWIDTH 576 0
DWIDTH 6 0
BBX 5 8 1 0
BITMAP
60
50
90
A0
A0
98
A8
F0
ENDCHAR
STARTCHAR racute
ENCODING 224
SWIDTH 384 0
DWIDTH 4 0
BBX 3 8 1 0
BITMAP
20
40
00
E0
80
80
80
C0
ENDCHAR
STARTCHAR aacute
ENCODING 225
SWIDTH 480 0
DWIDTH 5 0
BBX 4 8 1 0
BITMAP
20
40
00
60
30
D0
90
70
ENDCHAR
STARTCHAR acircumflex
ENCODING 226
SWIDTH 480 0
DWIDTH 5 0
BBX 4 8 1 0
BITMAP
40
A0
00
60
30
D0
90
70
ENDCHAR
STARTCHAR abreve
ENCODING 227
SWIDTH 480 0
DWIDTH 5 0
BBX 4 8 1 0
BITMAP
70
00
00
60
30
D0
90
70
ENDCHAR
STARTCHAR adieresis
ENCODING 228
SWIDTH 480 0
DWIDTH 5 0
BBX 6 7 0 0
BITMAP
50
00
70
10
70
90
FC
ENDCHAR
STARTCHAR lacute
ENCODING 229
SWIDTH 288 0
DWIDTH 3 0
BBX 3 10 1 0
BITMAP
20
40
80
80
80
80
80
80
80
80
ENDCHAR
STARTCHAR cacute
ENCODING 230
SWIDTH 480 0
DWIDTH 5 0
BBX 4 8 1 0
BITMAP
10
20
00
60
90
80
80
70
ENDCHAR
STARTCHAR ccedilla
ENCODING 231
SWIDTH 480 0
DWIDTH 5 0
BBX 4 7 1 -2
BITMAP
60
90
80
80
70
20
40
ENDCHAR
STARTCHAR ccaron
ENCODING 232
SWIDTH 480 0
DWIDTH 5 0
BBX 4 8 1 0
BITMAP
50
20
00
60
90
80
80
70
ENDCHAR
STARTCHAR eacute
ENCODING 233
SWIDTH 480 0
DWIDTH 5 0
BBX 4 8 1 0
BITMAP
20
40
00
60
90
F0
80
70
ENDCHAR
STARTCHAR eogonek
ENCODING 234
SWIDTH 480 0
DWIDTH 5 0
BBX 4 7 1 -2
BITMAP
60
90
F0
80
70
20
30
ENDCHAR
STARTCHAR edieresis
ENCODING 235
SWIDTH 480 0
DWIDTH 5 0
BBX 5 7 0 0
BITMAP
50
00
70
C8
F8
80
78
ENDCHAR
STARTCHAR ecaron
ENCODING 236
SWIDTH 480 0
DWIDTH 5 0
BBX 4 8 1 0
BITMAP
50
20
00
60
90
F0
80
70
ENDCHAR
STARTCHAR iacute
ENCODING 237
SWIDTH 288 0
DWIDTH 3 0
BBX 2 8 1 0
BITMAP
40
80
00
80
80
80
80
80
ENDCHAR
STARTCHAR icircumflex
ENCODING 238
SWIDTH 288 0
DWIDTH 3 0
BBX 3 8 0 0
BITMAP
40
A0
00
40
40
40
40
40
ENDCHAR
STARTCHAR dcaron
ENCODING 239
SWIDTH 576 0
DWIDTH 6 0
BBX 6 8 1 0
BITMAP
1C
0C
0C
38
48
88
C8
78
ENDCHAR
STARTCHAR dmacron
ENCODING 240
SWIDTH 672 0
DWIDTH 7 0
BBX 6 8 1 0
BITMAP
08
7C
08
38
48
88
C8
78
ENDCHAR
STARTCHAR nacute
ENCODING 241
SWIDTH 576 0
DWIDTH 6 0
BBX 5 8 1 0
BITMAP
10
20
00
F8
88
88
88
D8
ENDCHAR
STARTCHAR ncaron
ENCODING 242
SWIDTH 576 0
DWIDTH 6 0
BBX 5 8 1 0
BITMAP
50
20
00
F8
88
88
88
D8
ENDCHAR
STARTCHAR oacute
ENCODING 243
SWIDTH 576 0
DWIDTH 6 0
BBX 5 8 1 0
BITMAP
10
20
00
70
88
88
88
70
ENDCHAR
STARTCHAR ocircumflex
ENCODING 244
SWIDTH 576 0
DWIDTH 6 0
BBX 5 8 1 0
BITMAP
20
50
00
70
88
88
88
70
ENDCHAR
STARTCHAR ohungarumlaut
ENCODING 245
SWIDTH 576 0
DWIDTH 6 0
BBX 5 8 1 0
BITMAP
28
50
00
70
88
88
88
70
ENDCHAR
STARTCHAR odieresis
ENCODING 246
SWIDTH 576 0
DWIDTH 6 0
BBX 5 7 0 0
BITMAP
50
00
70
88
88
88
70
ENDCHAR
STARTCHAR divide
ENCODING 247
SWIDTH 864 0
DWIDTH 9 0
BBX 7 5 1 1
BITMAP
10
00
FE
00
10
ENDCHAR
STARTCHAR rcaron
ENCODING 248
SWIDTH 384 0
DWIDTH 4 0
BBX 3 8 1 0
BITMAP
A0
40
00
E0
80
80
80
C0
ENDCHAR
STARTCHAR uring
ENCODING 249
SWIDTH 672 0
DWIDTH 7 0
BBX 5 9 1 0
BITMAP
20
50
20
00
98
88
88
88
78
ENDCHAR
STARTCHAR uacute
ENCODING 250
SWIDTH 672 0
DWIDTH 7 0
BBX 5 8 1 0
BITMAP
10
20
00
98
88
88
88
78
ENDCHAR
STARTCHAR uhungarumlaut
ENCODING 251
SWIDTH 672 0
DWIDTH 7 0
BBX 5 8 1 0
BITMAP
28
50
00
98
88
88
88
78
ENDCHAR
STARTCHAR udieresis
ENCODING 252
SWIDTH 576 0
DWIDTH 6 0
BBX 6 7 0 0
BITMAP
50
00
D8
48
48
48
7C
ENDCHAR
STARTCHAR yacute
ENCODING 253
SWIDTH 480 0
DWIDTH 5 0
BBX 5 10 0 -2
BITMAP
10
20
00
D8
50
50
30
20
20
C0
ENDCHAR
STARTCHAR tcedilla
ENCODING 254
SWIDTH 288 0
DWIDTH 3 0
BBX 2 8 1 -2
BITMAP
80
C0
80
80
80
C0
40
80
ENDCHAR
STARTCHAR dotaccent
ENCODING 255
SWIDTH 480 0
DWIDTH 5 0
BBX 1 1 2 6
BITMAP
80
ENDCHAR
ENDFONT
